<?xml version="1.0" encoding="UTF-8"?>
<!DOCTYPE svg PUBLIC "-//W3C//DTD SVG 1.1//EN" "http://www.w3.org/Graphics/SVG/1.1/DTD/svg11.dtd">
<!-- Creator: CorelDRAW X8 -->
<svg xmlns="http://www.w3.org/2000/svg" xml:space="preserve" width="100%" height="100%" version="1.1" style="shape-rendering:geometricPrecision; text-rendering:geometricPrecision; image-rendering:optimizeQuality; fill-rule:evenodd; clip-rule:evenodd"
viewBox="0 0 4559 979"
 xmlns:xlink="http://www.w3.org/1999/xlink">
 <defs>
  <style type="text/css">
   <![CDATA[
    .fil0 {fill:#373435;fill-rule:nonzero}
   ]]>
  </style>
 </defs>
 <g id="Layer_x0020_1">
  <metadata id="CorelCorpID_0Corel-Layer"/>
  <g id="_1922285089232">
   <path class="fil0" d="M406 381l-165 -373 -137 0 0 16 12 0c12,-1 21,0 29,0 7,1 13,3 18,7 4,3 8,8 10,15 2,8 3,17 4,29 0,12 0,27 0,45l0 196c1,24 0,43 -1,59 -2,15 -6,28 -11,37 -5,9 -12,16 -21,21 -10,5 -21,8 -36,10l-4 0 0 16 161 0 0 -16 -4 0c-13,-1 -25,-4 -35,-10 -10,-6 -18,-13 -23,-24 -3,-4 -4,-8 -6,-13 -1,-4 -2,-9 -3,-15 -1,-7 -1,-15 -1,-25 0,-10 0,-22 0,-38l0 -263 179 404 16 0 178 -404 0 287c0,18 0,34 -1,46 0,12 -1,22 -3,30 -2,7 -6,12 -10,16 -4,4 -10,6 -17,7 -7,2 -16,2 -26,2l-16 0 0 16 216 0 0 -16 -21 0c-10,0 -19,0 -27,-2 -7,-1 -12,-3 -17,-7 -4,-4 -7,-9 -9,-16 -2,-8 -3,-18 -4,-30 0,-12 -1,-28 0,-46l0 -222c-1,-18 0,-33 0,-45 1,-12 2,-21 4,-29 2,-7 6,-12 10,-15 5,-4 11,-6 18,-7 8,0 17,-1 29,0l17 0 0 -16 -139 0 -164 373zm800 -381c-36,0 -68,6 -98,17 -29,11 -55,27 -77,47 -21,21 -38,45 -50,72 -12,28 -18,58 -18,92 0,36 6,68 18,98 11,29 28,54 50,75 21,21 47,37 77,49 30,11 63,17 100,17 37,0 70,-6 100,-17 30,-11 56,-27 78,-48 21,-21 38,-45 50,-74 11,-29 17,-60 17,-96 0,-23 -2,-45 -8,-66 -6,-21 -14,-40 -24,-58 -11,-18 -24,-34 -39,-47 -15,-13 -32,-24 -50,-33 -19,-9 -39,-16 -61,-21 -21,-4 -43,-7 -65,-7zm2 17c22,0 43,4 62,11 19,7 36,18 51,31 12,12 22,26 31,43 8,17 14,37 19,59 4,22 6,47 6,73 0,46 -6,86 -19,118 -13,32 -32,56 -57,73 -24,16 -55,25 -91,25 -25,0 -48,-4 -69,-12 -20,-7 -37,-19 -52,-34 -11,-11 -19,-25 -27,-42 -7,-17 -13,-37 -17,-59 -4,-22 -6,-46 -6,-72 0,-22 2,-43 6,-64 3,-20 8,-38 15,-55 6,-17 14,-31 23,-42 10,-11 21,-21 33,-29 13,-8 27,-14 43,-18 15,-4 31,-6 49,-6zm976 442l0 -16 -3 0c-12,0 -23,-1 -33,-5 -11,-3 -21,-9 -32,-16 -10,-8 -21,-18 -33,-30 -11,-13 -23,-28 -37,-46 -15,-22 -30,-40 -42,-56 -13,-15 -24,-27 -33,-37 -10,-9 -19,-16 -27,-21 27,-3 50,-10 69,-20 19,-10 34,-23 44,-39 10,-16 15,-34 15,-55 0,-18 -4,-35 -13,-50 -9,-15 -22,-27 -40,-38 -16,-10 -35,-17 -58,-22 -23,-4 -51,-7 -83,-7 -5,0 -11,1 -19,1 -7,0 -16,0 -25,0 -10,1 -20,1 -30,1 -10,1 -20,1 -29,2l-65 3 0 16 8 0c12,-1 21,0 29,0 7,1 13,3 18,7 4,3 8,8 10,15 2,8 3,17 4,29 0,12 0,27 0,45l0 222c0,18 0,34 0,46 -1,12 -2,22 -4,30 -2,7 -5,12 -10,16 -4,4 -10,6 -17,7 -7,2 -16,2 -26,2l-15 0 0 16 216 0 0 -16 -22 0c-10,0 -19,0 -26,-2 -7,-1 -13,-3 -17,-7 -5,-4 -8,-9 -10,-16 -2,-8 -3,-18 -4,-30 0,-12 -1,-28 0,-46l0 -101 18 0c6,0 12,0 18,2 5,3 12,7 19,14 7,7 16,17 26,30 11,14 24,32 40,54 13,19 26,36 38,53 12,16 24,29 34,41 11,11 19,19 26,24l121 0zm-340 -233l0 -206c6,-1 11,-1 16,-1 4,-1 9,-1 13,-1 18,0 34,1 48,3 13,3 25,6 34,11 14,7 25,18 33,33 7,16 11,35 11,58 0,23 -4,43 -12,58 -8,14 -21,26 -38,33 -17,7 -40,11 -67,12l-31 0 -7 0zm527 -109c4,-21 9,-37 14,-50 5,-13 11,-22 18,-29 8,-6 18,-11 30,-13 12,-2 27,-2 45,-1l67 0 0 317c0,19 0,34 0,47 -1,12 -2,22 -4,29 -2,8 -6,13 -10,17 -4,4 -10,6 -17,7 -7,2 -16,2 -27,2l-22 0 0 16 224 0 0 -16 -22 0c-10,0 -19,0 -26,-2 -7,-1 -13,-3 -17,-7 -5,-4 -8,-9 -10,-17 -2,-7 -3,-17 -4,-29 0,-13 -1,-28 0,-47l0 -317 72 0c17,-1 31,-1 42,2 12,2 21,6 28,13 8,7 14,17 18,29 5,13 10,29 13,49l15 0 -3 -109 -436 0 -3 109 15 0zm675 -93l9 0c12,-1 21,0 29,0 8,1 14,3 18,7 5,3 8,8 10,15 2,8 3,17 4,29 0,12 1,27 0,45l0 222c1,18 0,34 0,46 -1,12 -2,22 -4,30 -2,7 -5,12 -10,16 -4,4 -10,6 -17,7 -7,2 -16,2 -26,2l-13 0 0 16 205 0 0 -16 -13 0c-10,0 -19,0 -26,-2 -7,-1 -13,-3 -17,-7 -4,-4 -7,-9 -9,-16 -2,-8 -4,-18 -4,-30 -1,-12 -1,-28 -1,-46l0 -222c0,-18 0,-33 0,-45 1,-12 2,-21 4,-29 2,-7 6,-12 10,-15 5,-4 11,-6 18,-7 8,0 17,-1 29,0l9 0 0 -16 -205 0 0 16zm468 430l16 0c2,-9 5,-17 7,-25 3,-7 6,-14 10,-19 16,19 35,33 56,43 20,9 43,14 68,14 28,0 53,-6 74,-17 21,-11 37,-26 49,-45 12,-20 18,-42 18,-69 0,-18 -4,-35 -10,-51 -7,-16 -16,-29 -29,-41 -4,-4 -9,-8 -14,-12 -5,-4 -11,-7 -19,-11 -7,-5 -17,-9 -28,-15 -12,-5 -26,-12 -43,-20 -15,-6 -27,-11 -36,-16 -10,-5 -18,-9 -24,-14 -7,-4 -12,-8 -17,-12 -10,-9 -18,-18 -23,-28 -5,-9 -8,-20 -8,-31 0,-14 4,-26 10,-36 7,-11 16,-19 27,-25 12,-5 25,-8 40,-8 20,0 37,4 53,13 16,9 30,21 41,38 12,16 20,36 27,59l14 0 0 -118 -14 0c-1,7 -3,14 -6,21 -3,6 -7,13 -12,19 -11,-12 -22,-21 -32,-28 -11,-7 -22,-12 -34,-15 -11,-3 -24,-5 -38,-5 -17,0 -33,3 -48,8 -14,6 -27,14 -38,24 -10,10 -19,22 -25,35 -6,14 -8,29 -9,45 0,10 2,20 4,30 3,10 7,20 11,29 5,9 11,17 18,25 8,9 20,18 35,27 14,9 33,18 57,28 14,6 27,11 36,16 10,4 17,8 24,11 6,3 11,6 15,9 4,3 8,6 12,9 12,9 20,19 26,30 6,12 9,24 9,37 0,17 -5,32 -13,45 -9,13 -21,24 -35,31 -15,8 -32,12 -51,12 -35,0 -64,-12 -87,-36 -22,-24 -38,-59 -48,-106l-16 0 0 145zm919 -135c-8,30 -18,54 -30,73 -12,19 -26,32 -44,40 -17,9 -38,12 -62,11l-33 0c-13,0 -23,0 -31,-1 -8,-1 -14,-3 -19,-7 -5,-3 -8,-9 -11,-17 -2,-8 -3,-19 -4,-32 -1,-13 -1,-30 -1,-51l0 -106 49 0c14,0 25,0 34,2 8,1 15,4 20,9 4,4 7,11 9,20 2,9 3,20 4,34l0 6 15 0 0 -155 -15 0 0 6c0,13 -1,23 -3,31 -1,8 -5,15 -10,19 -4,5 -11,8 -20,9 -9,2 -21,3 -35,3l-48 0 0 -189 62 0c22,-1 41,0 56,2 15,3 27,7 37,14 9,7 17,18 23,31 6,13 11,29 16,50l16 0 -11 -113 -322 0 0 16 6 0c12,-1 22,0 29,2 7,2 13,7 16,13 3,7 6,16 7,29 1,13 1,31 0,53l0 221c1,18 1,34 0,46 -1,12 -2,22 -4,29 -2,8 -5,13 -10,17 -4,4 -10,6 -17,7 -7,2 -16,2 -27,2l-9 0 0 16 373 0 9 -140 -15 0z"/>
   <path class="fil0" d="M673 901l0 6 4 0c6,0 10,0 14,1 3,1 5,3 6,7 1,3 2,8 2,14l0 7c0,6 -1,11 -3,16 -2,4 -5,8 -10,11 -4,3 -9,5 -14,7 -5,2 -11,2 -16,2 -6,0 -11,0 -16,-2 -6,-1 -10,-3 -15,-6 -5,-3 -9,-6 -12,-9 -6,-7 -11,-17 -14,-28 -4,-11 -5,-24 -5,-40 0,-14 1,-27 4,-37 2,-10 6,-18 11,-25 4,-4 8,-8 13,-12 5,-3 10,-5 16,-7 6,-2 11,-3 18,-3 10,0 20,3 29,7 8,5 15,12 21,21 5,9 9,19 11,31l6 0 0 -59 -6 0c-1,4 -2,7 -3,11 -1,3 -2,6 -3,9 -8,-9 -16,-15 -26,-20 -9,-4 -20,-6 -32,-6 -12,0 -24,2 -34,6 -11,4 -20,11 -28,19 -5,5 -10,12 -14,20 -4,7 -7,15 -9,24 -2,8 -3,17 -4,25 1,13 3,24 7,35 4,11 10,20 18,28 8,8 17,14 28,18 11,4 22,7 35,7 4,0 7,0 10,-1 3,0 6,0 9,-1 4,-1 7,-2 10,-3 4,-1 8,-2 12,-4 5,-2 10,-3 14,-4 5,-1 8,-2 12,-2 1,0 1,0 2,0 1,0 2,0 3,1l0 -19c0,-7 0,-13 0,-18 1,-4 1,-8 2,-11 1,-3 2,-5 4,-7 1,-1 3,-2 6,-2 3,-1 6,-1 11,-1l1 0 0 -6 -75 0zm301 75l0 -6 -1 0c-5,0 -9,-1 -13,-2 -4,-2 -8,-4 -12,-7 -5,-3 -9,-7 -13,-12 -5,-4 -9,-10 -15,-17 -6,-9 -11,-16 -16,-22 -5,-6 -9,-11 -13,-14 -4,-4 -7,-7 -11,-8 11,-2 20,-4 27,-8 8,-4 13,-9 17,-16 4,-6 6,-13 6,-21 0,-7 -1,-14 -5,-19 -3,-6 -8,-11 -15,-15 -6,-4 -14,-7 -23,-9 -9,-1 -20,-2 -32,-2 -2,0 -4,0 -7,0 -3,0 -7,0 -10,0 -4,0 -8,0 -12,0 -4,1 -8,1 -11,1l-25 1 0 6 3 0c4,0 8,0 11,1 3,0 5,1 7,2 2,1 3,3 4,6 1,3 1,7 1,11 0,5 1,11 0,18l0 86c1,7 0,13 0,18 0,5 0,9 -1,12 -1,2 -2,5 -4,6 -2,1 -4,2 -7,3 -2,0 -6,1 -10,1l-5 0 0 6 83 0 0 -6 -8 0c-4,0 -8,-1 -10,-1 -3,-1 -5,-2 -7,-3 -2,-1 -3,-4 -4,-6 -1,-3 -1,-7 -1,-12 0,-5 -1,-11 0,-18l0 -39 7 0c2,0 4,0 7,1 2,1 4,2 7,5 3,3 6,7 10,12 4,5 9,12 16,21 5,7 10,14 15,20 4,6 9,12 13,16 4,4 7,8 10,10l47 0zm-132 -91l0 -80c2,0 4,0 6,-1 2,0 3,0 5,0 7,0 13,1 19,1 5,1 9,3 13,4 5,3 10,8 13,14 2,6 4,13 4,22 0,9 -2,17 -5,22 -3,6 -8,11 -15,13 -6,3 -15,5 -25,5l-12 0 -3 0zm246 -88c-14,0 -27,2 -38,7 -12,4 -22,10 -30,18 -8,8 -15,17 -20,28 -4,11 -7,23 -7,36 0,14 3,26 7,38 5,11 11,21 20,29 8,8 18,15 30,19 11,4 24,7 39,7 14,0 27,-3 39,-7 11,-4 21,-10 30,-18 8,-9 15,-18 19,-29 5,-11 7,-24 7,-37 0,-9 -1,-18 -3,-26 -2,-8 -6,-16 -10,-23 -4,-7 -9,-13 -15,-18 -5,-5 -12,-9 -19,-13 -8,-3 -15,-6 -24,-8 -8,-2 -17,-3 -25,-3zm1 7c8,0 16,1 24,4 7,3 14,7 20,12 4,5 8,10 11,17 4,7 6,14 8,23 2,8 2,18 2,28 0,18 -2,33 -7,46 -5,12 -12,22 -22,28 -10,7 -22,10 -35,10 -10,0 -19,-1 -27,-4 -8,-3 -15,-8 -21,-14 -4,-4 -7,-9 -10,-16 -3,-7 -5,-14 -7,-23 -1,-9 -2,-18 -2,-28 0,-9 1,-17 2,-25 2,-8 4,-15 6,-21 3,-7 6,-12 9,-17 4,-4 8,-8 13,-11 5,-3 11,-5 16,-7 6,-1 13,-2 20,-2zm273 -4l0 6 1 0c6,1 10,2 13,3 4,1 6,3 8,5 2,3 3,6 4,11 1,4 1,9 1,16l0 59c0,7 0,13 -1,18 0,5 0,8 0,11 -1,3 -1,6 -2,8 -1,3 -2,5 -4,7 -3,6 -7,10 -12,14 -5,4 -11,7 -18,9 -7,2 -14,3 -22,3 -6,0 -12,-1 -18,-3 -6,-1 -11,-4 -15,-7 -4,-3 -7,-7 -10,-11 -1,-2 -2,-4 -3,-5 -1,-2 -1,-5 -2,-7 0,-2 -1,-5 -1,-8 0,-4 0,-8 0,-13 0,-4 -1,-10 -1,-17l0 -55c0,-7 0,-13 1,-18 0,-4 0,-8 1,-11 1,-3 2,-5 4,-6 2,-1 4,-2 7,-2 3,-1 7,-1 11,-1l4 0 0 -6 -80 0 0 6 4 0c4,0 8,0 11,1 3,0 5,1 7,2 2,1 3,3 4,6 0,3 1,7 1,11 0,5 0,11 0,18l0 55c0,5 0,9 0,12 0,3 0,5 0,6 0,2 0,3 0,3 0,1 1,2 1,2 0,5 0,9 1,13 0,3 1,6 2,9 2,3 3,6 5,9 4,5 8,10 14,14 6,4 13,7 21,9 8,2 16,3 25,3 10,0 19,-1 27,-4 8,-2 15,-5 21,-9 6,-4 11,-9 15,-15 1,-3 2,-5 3,-7 1,-2 2,-4 3,-7 0,-2 1,-5 1,-8 1,-3 1,-7 1,-12 0,-4 0,-9 0,-16l0 -58c0,-6 0,-12 0,-16 1,-5 2,-8 4,-11 1,-3 4,-5 7,-6 3,-2 7,-3 12,-4l3 0 0 -6 -59 0zm150 93l19 0c8,0 15,0 21,-1 5,0 10,-1 14,-2 4,-1 8,-3 11,-5 4,-2 8,-5 11,-9 4,-4 6,-9 8,-14 1,-5 2,-10 2,-16 0,-9 -1,-16 -5,-22 -3,-6 -9,-12 -16,-16 -4,-2 -8,-4 -13,-6 -5,-1 -10,-2 -17,-3 -7,0 -15,-1 -24,-1 -2,0 -5,0 -6,0 -2,0 -4,1 -6,1 -2,0 -4,0 -6,0 -3,0 -6,0 -10,0 -3,0 -8,0 -13,1l-22 0 0 6 3 0c5,0 8,0 11,1 3,0 6,1 7,2 2,1 3,3 4,6 1,3 2,7 2,11 0,5 0,11 0,18l0 86c0,7 0,13 0,18 -1,5 -1,9 -2,12 -1,2 -2,5 -3,6 -2,1 -4,2 -7,3 -3,0 -6,1 -10,1l-5 0 0 6 80 0 0 -6 -6 0c-4,0 -7,-1 -10,-1 -3,-1 -5,-2 -7,-3 -1,-1 -2,-4 -3,-6 -1,-3 -1,-7 -2,-12 0,-5 0,-11 0,-18l0 -37zm0 -6l0 -82c1,0 3,0 4,0 1,0 2,0 4,0 1,0 3,0 4,0 6,0 11,0 15,1 4,0 8,1 11,2 2,1 5,3 8,5 2,2 5,5 7,8 2,4 3,7 4,12 1,4 2,9 2,14 0,7 -1,14 -4,19 -2,6 -6,10 -10,14 -3,1 -6,3 -8,4 -3,1 -6,2 -10,2 -4,1 -9,1 -14,1l-13 0zm316 -90c-13,0 -26,2 -38,7 -11,4 -21,10 -29,18 -9,8 -15,17 -20,28 -5,11 -7,23 -7,36 0,14 2,26 7,38 4,11 11,21 19,29 9,8 19,15 30,19 12,4 25,7 39,7 15,0 28,-3 39,-7 12,-4 22,-10 30,-18 9,-9 15,-18 20,-29 4,-11 7,-24 7,-37 0,-9 -1,-18 -4,-26 -2,-8 -5,-16 -9,-23 -4,-7 -9,-13 -15,-18 -6,-5 -12,-9 -20,-13 -7,-3 -15,-6 -23,-8 -8,-2 -17,-3 -26,-3zm1 7c9,0 17,1 24,4 8,3 15,7 20,12 5,5 9,10 12,17 3,7 6,14 8,23 1,8 2,18 2,28 0,18 -2,33 -7,46 -5,12 -13,22 -22,28 -10,7 -22,10 -36,10 -10,0 -19,-1 -27,-4 -7,-3 -14,-8 -20,-14 -4,-4 -8,-9 -10,-16 -3,-7 -5,-14 -7,-23 -2,-9 -2,-18 -2,-28 0,-9 0,-17 2,-25 1,-8 3,-15 6,-21 2,-7 5,-12 9,-17 3,-4 8,-8 13,-11 5,-3 10,-5 16,-7 6,-1 12,-2 19,-2zm278 -4l-135 0 0 6 3 0c4,0 8,0 11,1 3,0 5,1 7,2 2,1 3,3 4,6 1,3 1,7 1,11 1,5 1,11 1,18l0 86c0,7 0,13 -1,18 0,5 0,9 -1,11 -1,3 -2,6 -4,7 -2,1 -4,2 -6,3 -3,0 -7,1 -11,1l-5 0 0 6 81 0 0 -6 -6 0c-4,0 -8,-1 -10,-1 -3,-1 -5,-2 -7,-3 -2,-1 -3,-4 -4,-7 0,-2 -1,-6 -1,-11 0,-5 0,-11 0,-18l0 -44 16 0c7,0 12,0 16,2 3,2 6,4 8,8 1,4 2,10 2,17l0 2 7 0 0 -61 -7 0 0 1c0,7 0,12 -2,16 -1,3 -4,6 -8,8 -4,1 -9,2 -16,1l-16 0 0 -74 34 0c9,0 17,0 23,3 6,2 10,6 14,12 3,5 6,13 7,23l6 0 -1 -44zm287 110c0,5 -2,11 -3,16 -2,5 -4,10 -6,15 -3,4 -5,8 -8,12 -3,3 -7,6 -10,8 -5,3 -11,6 -17,8 -6,1 -12,2 -18,2 -9,0 -18,-2 -25,-5 -8,-4 -14,-10 -20,-17 -5,-7 -9,-15 -12,-25 -3,-10 -5,-21 -5,-34 0,-18 3,-33 8,-46 4,-13 11,-23 20,-30 9,-7 20,-10 33,-10 7,0 13,1 19,3 7,2 12,5 18,8 5,4 9,8 13,13 3,5 6,11 8,17 2,7 4,14 5,22l6 0 -2 -67 -5 0c-1,3 -1,5 -2,8 0,3 -1,5 -2,8 -1,2 -2,5 -3,7 -4,-5 -10,-10 -16,-14 -6,-4 -13,-7 -21,-9 -7,-2 -15,-3 -22,-3 -13,0 -25,2 -35,7 -11,5 -20,11 -27,19 -8,9 -14,19 -18,30 -4,11 -6,24 -6,38 0,13 2,25 6,36 4,10 10,20 18,27 7,8 16,14 27,18 10,4 22,7 35,7 24,0 43,-9 59,-26 1,1 2,3 4,5 1,2 2,4 2,7 1,2 2,4 2,6l6 0 0 -61 -6 0zm158 -113c-14,0 -27,2 -38,7 -12,4 -22,10 -30,18 -8,8 -15,17 -20,28 -4,11 -7,23 -7,36 0,14 3,26 7,38 5,11 11,21 20,29 8,8 18,15 30,19 11,4 24,7 39,7 14,0 27,-3 39,-7 11,-4 21,-10 30,-18 8,-9 15,-18 19,-29 5,-11 7,-24 7,-37 0,-9 -1,-18 -3,-26 -2,-8 -6,-16 -10,-23 -4,-7 -9,-13 -15,-18 -6,-5 -12,-9 -19,-13 -8,-3 -15,-6 -24,-8 -8,-2 -17,-3 -25,-3zm0 7c9,0 17,1 25,4 7,3 14,7 20,12 4,5 8,10 11,17 4,7 6,14 8,23 2,8 2,18 2,28 0,18 -2,33 -7,46 -5,12 -12,22 -22,28 -10,7 -22,10 -35,10 -10,0 -19,-1 -27,-4 -8,-3 -15,-8 -21,-14 -4,-4 -7,-9 -10,-16 -3,-7 -5,-14 -7,-23 -1,-9 -2,-18 -2,-28 0,-9 1,-17 2,-25 2,-8 3,-15 6,-21 3,-7 6,-12 9,-17 4,-4 8,-8 13,-11 5,-3 10,-5 16,-7 6,-1 13,-2 19,-2zm257 141l-64 -145 -53 0 0 6 4 0c5,0 9,0 11,1 3,0 6,1 8,2 1,1 3,3 3,6 1,3 2,7 2,11 0,5 0,11 0,18l0 76c0,9 0,17 -1,23 0,6 -2,11 -3,14 -2,4 -5,7 -9,9 -4,1 -8,3 -14,4l-1 0 0 6 62 0 0 -6 -1 0c-6,-1 -10,-2 -14,-4 -4,-3 -7,-6 -9,-10 -1,-1 -2,-3 -2,-5 -1,-1 -1,-3 -1,-6 -1,-2 -1,-5 -1,-9 0,-4 0,-9 0,-15l0 -103 70 158 6 0 69 -158 0 112c0,7 0,13 0,18 0,5 -1,9 -1,12 -1,2 -2,5 -4,6 -2,1 -4,2 -7,3 -2,0 -6,1 -10,1l-6 0 0 6 84 0 0 -6 -8 0c-4,0 -8,-1 -11,-1 -2,-1 -5,-2 -6,-3 -2,-1 -3,-4 -4,-6 -1,-3 -1,-7 -1,-12 -1,-5 -1,-11 0,-18l0 -86c-1,-7 -1,-13 0,-18 0,-4 0,-8 1,-11 1,-3 2,-5 4,-6 2,-1 4,-2 7,-2 3,-1 7,-1 11,-1l7 0 0 -6 -54 0 -64 145zm212 -52l19 0c8,0 15,0 20,-1 6,0 11,-1 15,-2 4,-1 8,-3 11,-5 4,-2 8,-5 11,-9 3,-4 6,-9 7,-14 2,-5 3,-10 3,-16 0,-9 -2,-16 -5,-22 -4,-6 -9,-12 -16,-16 -4,-2 -8,-4 -13,-6 -5,-1 -11,-2 -18,-3 -6,0 -14,-1 -23,-1 -3,0 -5,0 -7,0 -2,0 -3,1 -5,1 -2,0 -4,0 -7,0 -2,0 -5,0 -9,0 -4,0 -8,0 -13,1l-22 0 0 6 3 0c4,0 8,0 11,1 3,0 5,1 7,2 2,1 3,3 4,6 1,3 1,7 1,11 1,5 1,11 1,18l0 86c0,7 0,13 -1,18 0,5 0,9 -1,12 -1,2 -2,5 -4,6 -2,1 -4,2 -6,3 -3,0 -7,1 -11,1l-4 0 0 6 80 0 0 -6 -6 0c-4,0 -8,-1 -10,-1 -3,-1 -5,-2 -7,-3 -2,-1 -3,-4 -4,-6 0,-3 -1,-7 -1,-12 0,-5 0,-11 0,-18l0 -37zm0 -6l0 -82c1,0 2,0 4,0 1,0 2,0 3,0 2,0 3,0 5,0 6,0 11,0 15,1 4,0 7,1 10,2 3,1 6,3 8,5 3,2 5,5 7,8 2,4 4,7 5,12 1,4 2,9 2,14 0,7 -2,14 -4,19 -3,6 -6,10 -11,14 -2,1 -5,3 -8,4 -2,1 -6,2 -10,2 -3,1 -8,1 -14,1l-12 0zm211 24l13 33c2,3 3,6 4,7 0,2 1,4 1,5 1,1 1,2 1,2 0,1 0,2 0,2 0,3 0,4 -2,6 -1,1 -3,2 -6,3 -3,0 -6,1 -11,1l-2 0 0 6 68 0 0 -6 -1 0c-4,-1 -7,-2 -9,-3 -2,-1 -4,-2 -6,-4 -2,-2 -4,-5 -6,-9 -2,-4 -4,-10 -7,-17l-58 -139 -5 0 -51 122 -6 15c-3,6 -5,11 -7,15 -2,5 -4,8 -6,10 -2,3 -5,5 -7,6 -3,1 -6,2 -9,3l-2 1 0 6 52 0 0 -6 -2 0c-4,0 -7,-1 -9,-3 -3,-1 -5,-3 -6,-5 -2,-3 -2,-5 -2,-9 0,-1 0,-3 0,-4 0,-2 1,-3 1,-6 1,-2 2,-5 3,-8 2,-3 4,-8 6,-13l4 -11 67 0zm-2 -6l-62 0 31 -74 31 74zm255 74l5 0 0 -145c0,-6 0,-11 2,-15 1,-3 4,-6 8,-8 3,-3 9,-4 15,-5l2 0 0 -6 -63 0 0 6 3 0c7,1 13,2 17,4 4,1 6,4 8,8 1,4 2,8 2,15l0 104 -104 -137 -52 0 0 6 2 0c4,0 8,0 11,1 3,0 5,1 7,2 2,1 3,3 4,6 1,3 1,7 2,11 0,5 0,11 0,18l0 93c0,4 0,7 0,9 0,3 0,5 0,6 0,2 0,3 -1,4 0,1 0,2 -1,3 -1,2 -2,3 -5,5 -2,1 -5,2 -8,3 -3,1 -6,2 -10,3l-3 0 0 6 66 0 0 -6 -3 0c-10,-1 -17,-3 -22,-6 -4,-4 -6,-10 -6,-17l0 -10 0 -122 124 164zm71 -173l4 0c4,0 8,0 11,1 3,0 5,1 7,2 2,1 3,3 4,6 0,3 1,7 1,11 0,5 0,11 0,18l0 86c0,7 0,13 0,18 0,5 -1,9 -1,12 -1,2 -2,5 -4,6 -2,1 -4,2 -7,3 -2,0 -6,1 -10,1l-5 0 0 6 80 0 0 -6 -5 0c-4,0 -8,-1 -10,-1 -3,-1 -5,-2 -7,-3 -2,-1 -3,-4 -4,-6 0,-3 -1,-7 -1,-12 0,-5 -1,-11 0,-18l0 -86c-1,-7 -1,-13 0,-18 0,-4 0,-8 1,-11 1,-3 2,-5 4,-6 2,-1 4,-2 7,-2 3,-1 7,-1 11,-1l4 0 0 -6 -80 0 0 6zm265 115c-3,12 -7,21 -12,29 -4,7 -10,12 -17,15 -6,3 -14,5 -24,5l-13 0c-5,0 -9,-1 -12,-1 -3,0 -5,-1 -7,-3 -2,-1 -3,-3 -4,-6 -1,-3 -2,-7 -2,-13 0,-5 0,-12 0,-20l0 -41 19 0c5,0 9,0 13,1 3,0 6,2 7,3 2,2 3,5 4,8 1,4 1,8 2,13l0 3 6 0 0 -60 -6 0 0 2c0,5 -1,9 -1,12 -1,3 -2,6 -4,7 -2,2 -5,3 -8,4 -4,1 -8,1 -14,1l-18 0 0 -74 24 0c8,0 16,0 21,1 6,1 11,3 15,6 3,3 6,6 9,12 2,5 4,11 6,19l6 0 -4 -44 -125 0 0 6 2 0c5,0 8,1 11,1 3,1 5,3 7,5 1,3 2,7 2,12 1,5 1,12 0,20l0 86c1,7 1,13 0,18 0,5 0,9 -1,11 -1,3 -2,5 -4,7 -2,1 -4,2 -7,3 -2,0 -6,1 -10,1l-4 0 0 6 145 0 4 -55 -6 0zm58 53l6 0c1,-4 2,-7 3,-10 1,-3 2,-5 4,-7 6,7 13,13 21,16 8,4 17,6 27,6 11,0 20,-3 29,-7 8,-4 14,-10 19,-17 4,-8 6,-17 7,-27 0,-7 -2,-14 -4,-20 -3,-6 -6,-11 -11,-16 -2,-2 -4,-3 -6,-5 -2,-1 -4,-2 -7,-4 -3,-2 -7,-4 -11,-6 -5,-2 -10,-4 -17,-7 -6,-3 -10,-5 -14,-7 -4,-2 -7,-3 -9,-5 -3,-2 -5,-3 -7,-5 -4,-3 -7,-7 -9,-11 -2,-3 -3,-7 -3,-12 0,-5 2,-10 4,-14 3,-4 6,-7 11,-9 4,-3 9,-4 15,-4 8,0 15,2 21,5 6,4 11,9 16,15 4,7 8,14 10,23l5 0 0 -46 -5 0c0,3 -1,6 -2,8 -1,3 -3,5 -5,8 -4,-5 -8,-8 -12,-11 -5,-3 -9,-5 -13,-6 -5,-1 -10,-2 -15,-2 -7,0 -13,1 -19,3 -6,3 -11,6 -15,9 -4,4 -7,9 -9,14 -3,6 -4,11 -4,18 0,4 1,8 2,12 1,3 2,7 4,11 2,3 4,6 7,9 3,4 7,7 13,11 6,3 13,7 22,11 6,2 11,4 15,6 3,1 6,3 9,4 2,1 4,3 6,4 1,1 3,2 5,3 4,4 7,8 10,12 2,4 3,9 3,14 0,7 -2,13 -5,18 -3,5 -8,9 -14,12 -6,3 -12,4 -20,4 -13,0 -25,-4 -33,-13 -9,-10 -15,-23 -19,-42l-6 0 0 57z"/>
   <polygon class="fil0" points="0,638 4559,638 4559,619 0,619 "/>
  </g>
 </g>
</svg>
