<svg xmlns="http://www.w3.org/2000/svg" viewBox="0 0 200 155" width="200" height="155">
	<style>
		tspan { white-space:pre }
		.shp0 { opacity: 0.271;fill: #434343 } 
		.shp1 { opacity: 0.69;fill: #b0b0b0 } 
		.shp2 { opacity: 0.8;fill: #cccccc } 
		.shp3 { fill: #2ebaa3 } 
		.shp4 { fill: #606062 } 
		.shp5 { opacity: 0.49;fill: #7b7b7b } 
	</style>
	<g id="#43434344">
		<path id="Layer" class="shp0" d="M-99 -8L299 -8L299 -7.09L298.09 -7.03C166.06 -6.96 34.02 -7.03 -98.01 -6.99L-99 -6.99L-99 -8Z" />
	</g>
	<g id="#b0b0b0b1">
		<path id="Layer" class="shp1" d="M-99 -6.99L-98.01 -6.99C-97.98 47 -98.01 100.99 -98 154.99C-98.01 156.99 -98.08 158.98 -98.16 160.99L-99 160.99L-99 -6.99Z" />
	</g>
	<g id="#fefefeff">
	</g>
	<g id="#cccccccd">
		<path id="Layer" class="shp2" d="M298.09 -7.03L299 -7.09L299 160.99L298.04 160.99C298.02 104.98 297.9 48.97 298.09 -7.03Z" />
	</g>
	<g id="#2ebaa3ff">
		<path id="Layer" fill-rule="evenodd" class="shp3" d="M103.94 15C112.29 5.96 125.82 3.87 137.47 5.86C136.68 8.06 134.16 8.34 132.35 9.33C122.71 13.86 116.03 23.22 113.18 33.31C117.94 33.54 123.23 33.73 127.11 36.89C130.26 39.34 130.53 43.88 133.63 46.36C139.35 51.21 145.91 54.94 152.41 58.61C153.43 59.18 154.09 60.06 154.41 61.23C153.82 61.17 152.65 61.05 152.06 60.98C143.5 57.06 134.24 53.01 124.58 54.38C119.66 55 116.42 59.25 111.82 60.68C104.98 63.17 97.52 61.89 90.75 59.84C90.68 60.45 90.54 61.67 90.47 62.28C98.67 65.4 107.7 69.35 116.54 66.33C120.38 65.18 122.81 61.93 125.11 58.89C126.92 57.52 127.23 60.18 126.24 61.19C123.2 66.5 117.16 69.57 111.15 69.72C103.59 70.19 96.51 67.08 89.6 64.49C87.16 71.04 86.32 78.21 83.08 84.41C74.58 84.99 67.16 78.81 63.18 71.78C63.68 67.56 67.11 63.81 70.79 61.77C76.18 59.07 82.42 60.2 88.04 61.45C88.21 60.59 88.36 59.73 88.5 58.87C73.92 52.99 61.28 42.48 52.51 29.48C49.67 24.81 46.56 19.9 46.09 14.33C59.92 14.1 74.65 19.5 82.81 31.12C85.88 35.85 89.56 40.47 94.89 42.75C98.5 37.53 104.41 34.48 110.59 33.55C113.4 22.72 120.3 13.07 130.04 7.44C121.47 7.68 112.32 9.69 106.18 16.1C102.65 19.48 100.87 24.09 99.41 28.64C98.95 28.86 98.04 29.3 97.58 29.52C97.42 24.04 100.46 19.01 103.94 15ZM48.8 16.69C55.77 35.02 71.56 49.13 89.34 56.75C90.65 52.74 92.09 48.76 93.74 44.87C88.56 42.5 84.57 38.25 81.57 33.5C74.52 22.63 61.39 17.21 48.8 16.69ZM106 44.2C103 46.08 99.38 46 96 45.69C94.36 49.62 92.68 53.56 91.81 57.74C97.68 59.35 103.99 60.62 109.96 58.77C114.8 57.6 118.1 53.22 123.03 52.28C128.02 51.05 133.15 51.97 138.11 52.88C134.18 49.85 129.64 47.03 127.96 42.07C125.63 36.06 118.27 35.92 112.85 35.64C111.27 38.97 109.38 42.42 106 44.2ZM97.57 43.33C102.93 44.47 107.91 40.87 110.08 36.15C105.2 36.91 100.52 39.28 97.57 43.33ZM72.59 63.55C69.2 64.92 67.14 68.08 65.4 71.13C69.13 76.78 74.74 81.83 81.82 82.19C83.72 76.07 85.46 69.9 87.21 63.74C82.45 62.67 77.28 61.68 72.59 63.55Z" />
	</g>
	<g id="#606062ff">
		<path id="Layer" class="shp4" d="M164.99 112.57C171.29 109.99 175.93 104.77 178.75 98.69C178.73 102.53 178.73 106.38 178.74 110.22C182.26 110.23 185.78 110.22 189.3 110.19C189.14 110.81 188.82 112.05 188.66 112.67C185.35 112.69 182.04 112.68 178.74 112.69C178.75 120.79 178.71 128.89 178.73 136.99C178.68 140.17 179.68 143.66 182.37 145.61C183.98 146.92 186.15 146.5 188.06 146.63C183.85 149.07 178.59 149.96 174.05 147.85C170.16 146.27 167.8 142.14 167.86 138.02C167.73 129.59 167.86 121.16 167.82 112.72C166.87 112.68 165.93 112.63 164.99 112.57Z" />
		<path id="Layer" class="shp4" d="M139.23 108.52C143.45 108.75 147.66 109.49 151.47 111.41C151.76 114.42 152.04 117.44 152.17 120.47C148.69 115.69 145.15 110.43 139.23 108.52Z" />
		<path id="Layer" class="shp4" d="M11.82 111.31C21.86 112.7 32.48 113.05 41.91 108.74C41.91 119.81 41.84 130.88 41.93 141.95C41.76 144.18 42.79 146.15 44.01 147.92C39 147.7 33.99 147.7 28.99 147.92C32.3 143.63 30.71 137.94 31.06 132.95C30.72 128.45 31.82 123.58 30.47 119.32C25.2 114.9 18.09 113.76 11.82 111.31Z" />
		<path id="Layer" class="shp4" d="M47.82 112.4C50.91 110.54 54.26 108.53 58.02 108.8C62.24 109.14 66.51 112.44 66.7 116.89C66.99 125.59 66.55 134.32 66.88 143.02C66.81 144.91 68.01 146.41 68.96 147.92C63.95 147.7 58.93 147.7 53.92 147.91C56.6 144.51 55.88 140.03 55.96 136.01C55.88 130.65 56.06 125.29 55.9 119.94C55.83 117.65 55.23 115.15 53.39 113.63C51.87 112.24 49.69 112.56 47.82 112.4Z" />
		<path id="Layer" class="shp4" d="M83.25 118.4C85.95 114.09 90.33 111.22 94.96 109.32C90.58 114.45 90.4 121.61 90.92 128C91.42 134.46 96.49 140.31 103.02 141.15C108.18 142.29 113.5 140.09 116.94 136.23C114.65 141.93 110.18 147.16 104.01 148.65C96.19 150.19 87.48 146.72 83.14 139.96C78.95 133.58 78.96 124.74 83.25 118.4Z" />
		<path id="Layer" class="shp4" d="M103.26 109.02C110.36 111.02 116.18 117.36 116.59 124.88C111.01 124.79 105.43 124.94 99.86 124.71C102.1 123.94 105.47 124.09 106.25 121.3C107.34 117.02 105.71 112.53 103.26 109.02Z" />
		<path id="Layer" class="shp4" d="M128.63 125.42C125.66 119.46 129.56 112.71 134.98 109.85C134.19 112.4 132.82 115.67 135.26 117.78C141.04 122.9 150.19 123.56 154.44 130.55C157.97 137.22 153.54 145.44 147.08 148.34C148.35 145.59 149.11 142.32 147.41 139.56C143.08 132.53 132.79 132.62 128.63 125.42Z" />
		<path id="Layer" class="shp4" d="M128.86 134.32C131.86 139.72 134.55 145.73 140.09 149.05C136.11 148.7 132.26 147.6 128.66 145.89C128.46 142.03 128.48 138.16 128.86 134.32Z" />
	</g>
	<g id="#7b7b7b7c">
		<path id="Layer" class="shp5" d="M-99 160.99L-98.16 160.99C33.91 161.01 165.97 161.01 298.04 160.99L299 160.99L299 162L-99 162L-99 160.99Z" />
	</g>
</svg>